<?xml version="1.0" standalone="no"?>
<!DOCTYPE svg PUBLIC "-//W3C//DTD SVG 20010904//EN"
 "http://www.w3.org/TR/2001/REC-SVG-20010904/DTD/svg10.dtd">
<svg version="1.0" xmlns="http://www.w3.org/2000/svg"
 width="1667.000000pt" height="1667.000000pt" viewBox="0 0 1667.000000 1667.000000"
 preserveAspectRatio="xMidYMid meet">

<g transform="translate(0.000000,1667.000000) scale(0.100000,-0.100000)"
fill="#000000" stroke="none">
<path d="M7935 12093 l-28 -36 -64 -1196 -63 -1196 -28 -55 c-33 -66 -86 -106
-162 -121 -52 -10 -134 3 -1375 219 -1458 254 -1357 242 -1371 167 -8 -46 12
-76 75 -110 29 -16 52 -36 55 -49 3 -12 27 -34 57 -51 28 -17 57 -42 65 -58 8
-15 39 -41 69 -58 30 -17 55 -36 55 -43 0 -17 36 -48 87 -76 24 -13 44 -33 47
-46 4 -14 27 -34 59 -53 28 -16 59 -43 68 -58 12 -21 146 -103 502 -311 441
-257 486 -286 477 -303 -6 -10 -27 -27 -48 -37 -20 -10 -597 -193 -1282 -407
-685 -213 -1253 -395 -1262 -403 -27 -23 -24 -83 5 -110 13 -12 30 -22 38 -22
21 -1 54 -32 73 -68 11 -22 26 -35 47 -39 27 -5 48 -25 92 -87 10 -14 26 -26
36 -26 23 0 71 -37 71 -54 0 -17 43 -56 61 -56 17 0 63 -46 72 -73 4 -10 26
-26 51 -36 29 -13 53 -34 73 -63 27 -41 31 -43 83 -46 30 -1 150 4 265 11 116
8 211 14 212 13 1 -1 -575 -369 -1280 -819 -706 -449 -1288 -822 -1295 -829
-31 -31 -15 -49 268 -293 63 -54 117 -102 120 -105 3 -3 69 -61 148 -128 118
-101 147 -122 165 -116 12 4 355 171 762 372 929 457 1048 514 1039 499 -4 -6
-93 -131 -197 -276 -140 -195 -190 -271 -190 -292 0 -29 27 -69 46 -69 11 0
102 -80 190 -166 29 -28 58 -53 66 -55 13 -5 91 -73 180 -160 26 -25 64 -55
84 -68 20 -12 50 -40 68 -62 28 -36 36 -40 70 -37 34 3 96 52 614 493 317 270
580 492 586 493 5 2 9 -5 9 -15 0 -31 30 -64 76 -84 26 -11 48 -28 53 -41 11
-29 36 -51 81 -72 21 -9 43 -31 55 -53 14 -27 31 -41 55 -49 23 -7 45 -26 64
-54 19 -27 44 -48 72 -61 24 -10 44 -23 44 -28 0 -19 62 -81 81 -81 10 0 26
-12 36 -26 45 -66 70 -84 117 -84 33 0 52 6 70 23 13 12 208 305 432 650 224
345 411 624 415 620 4 -4 73 -195 153 -423 81 -228 154 -426 164 -440 11 -14
38 -32 60 -40 23 -8 42 -20 42 -26 0 -23 44 -67 87 -85 23 -10 43 -24 43 -32
0 -20 51 -65 87 -78 18 -6 35 -19 38 -29 12 -37 47 -70 86 -80 21 -6 39 -17
39 -25 0 -23 49 -73 83 -84 21 -7 40 -25 54 -50 17 -29 34 -44 68 -57 45 -17
48 -16 93 2 84 35 74 -45 136 1107 61 1139 54 1074 131 1152 52 52 107 75 180
75 35 0 556 -86 1214 -200 634 -110 1168 -200 1188 -200 28 0 44 8 74 38 45
46 57 83 38 122 -8 15 -158 153 -334 306 l-321 279 -401 235 c-390 227 -402
235 -385 254 9 10 35 27 57 37 22 9 598 191 1280 404 682 213 1252 394 1268
402 15 7 27 20 27 27 0 7 7 19 15 26 26 22 17 54 -27 96 -70 67 -581 509 -608
526 -23 15 -49 15 -314 -3 -160 -10 -291 -17 -292 -16 -1 1 212 139 473 307
1583 1014 1502 961 1534 1016 49 86 89 43 -573 617 -62 53 -85 67 -111 67 -23
0 -220 -92 -641 -300 -335 -165 -610 -299 -611 -298 -2 2 72 107 164 235 181
250 211 306 189 347 -7 14 -158 152 -336 306 -253 219 -329 280 -350 280 -15
0 -45 -12 -67 -27 -21 -14 -279 -230 -572 -480 -292 -249 -534 -453 -536 -453
-2 0 13 47 34 105 41 109 48 160 27 187 -7 8 -156 140 -331 292 -353 306 -351
305 -412 246 -18 -17 -245 -359 -506 -760 -268 -413 -477 -724 -480 -717 -4 7
-98 271 -209 587 -111 316 -208 585 -215 596 -23 36 -647 574 -665 574 -10 0
-30 -16 -45 -37z m519 -1150 c191 -541 346 -989 346 -997 0 -57 -33 19 -143
332 -69 196 -227 646 -351 1000 -200 568 -238 688 -205 655 4 -4 163 -450 353
-990z m94 -15 c273 -778 329 -952 293 -912 -9 10 -631 1776 -631 1793 0 6 6
11 13 11 7 0 137 -355 325 -892z m3478 847 c4 -8 -2 -27 -12 -43 -45 -69
-1158 -1608 -1168 -1615 -41 -28 -96 -8 -96 35 0 14 976 1381 1063 1488 7 8
47 46 90 83 77 66 112 81 123 52z m-3382 -869 c188 -537 273 -793 267 -799 -6
-6 -12 -9 -14 -6 -12 12 -557 1581 -557 1600 0 20 2 21 13 9 8 -8 138 -370
291 -804z m1606 768 c0 -2 -133 -356 -295 -787 -268 -709 -299 -785 -331 -815
-38 -36 -76 -40 -82 -10 -3 16 502 1368 535 1431 19 38 102 168 121 189 11 13
19 15 33 7 11 -5 19 -12 19 -15z m1904 -10 c4 -9 3 -22 -2 -28 -5 -6 -228
-315 -495 -686 l-487 -675 -105 -53 c-58 -28 -105 -50 -105 -48 0 2 220 309
490 682 446 618 497 685 572 751 83 72 120 88 132 57z m-3425 -754 c133 -377
241 -693 241 -702 0 -9 -4 -19 -8 -22 -6 -3 -264 717 -477 1332 -23 67 -25
107 -5 85 5 -4 117 -316 249 -693z m1641 651 c0 -9 -104 -294 -232 -634 l-233
-619 -82 -69 c-46 -38 -80 -64 -78 -57 3 7 106 279 229 605 204 540 229 600
286 690 35 54 68 101 73 105 15 10 37 -2 37 -21z m1905 -18 c0 -14 -154 -236
-392 -565 l-392 -543 -106 -53 c-72 -36 -103 -47 -96 -35 6 10 183 257 394
548 348 481 391 537 468 603 88 76 124 89 124 45z m-3450 -656 c123 -350 204
-595 200 -605 -6 -15 -7 -15 -15 -1 -18 31 -420 1184 -420 1203 0 58 45 -57
235 -597z m1667 572 c7 -10 -45 -158 -166 -478 -97 -255 -177 -465 -178 -466
-2 -1 -36 -30 -76 -65 -40 -34 -75 -60 -76 -59 -2 2 72 202 163 444 153 401
173 449 235 543 64 100 79 112 98 81z m1916 -20 c1 -9 -133 -204 -300 -433
l-303 -418 -103 -48 -102 -49 29 42 c16 23 150 209 297 414 227 313 281 382
349 442 59 52 87 70 105 68 14 -1 26 -9 28 -18z m-1778 -93 c0 -7 -222 -590
-231 -608 -10 -18 -150 -140 -156 -135 -1 2 45 128 103 281 82 215 118 297
161 364 74 117 81 124 104 111 11 -5 19 -11 19 -13z m1899 -9 c13 -17 12 -19
-222 -342 l-173 -240 -103 -53 c-56 -30 -104 -52 -106 -50 -2 2 84 125 190
273 164 228 208 282 282 348 87 77 111 89 132 64z m-1795 -83 c24 -9 20 -27
-35 -174 -54 -142 -54 -143 -172 -242 l-48 -40 19 48 c11 27 32 83 47 124 23
60 158 290 170 290 2 0 10 -3 19 -6z m2871 -48 c8 -13 13 -30 10 -37 -3 -8
-623 -411 -1378 -895 -1296 -831 -1373 -882 -1392 -922 -11 -22 -23 -41 -27
-42 -4 0 -19 11 -35 24 -35 30 -39 95 -8 124 11 11 604 394 1318 851 1161 744
1443 919 1484 921 7 0 19 -11 28 -24z m123 -98 c17 -17 15 -53 -5 -70 -18 -15
-2586 -1663 -2646 -1698 -22 -13 -57 -19 -114 -22 -46 -2 -83 -1 -83 3 0 3 10
15 23 26 36 35 2594 1673 2692 1725 95 50 114 55 133 36z m127 -114 c9 -9 15
-26 13 -37 -2 -16 -317 -223 -1245 -818 l-1241 -796 -104 -5 c-57 -3 -104 -5
-105 -4 -6 5 2477 1590 2551 1628 103 53 108 54 131 32z m130 -118 c8 -13 13
-29 10 -37 -3 -8 -516 -342 -1141 -743 l-1136 -729 -107 -7 c-58 -5 -107 -7
-108 -6 -5 5 2251 1447 2336 1493 53 29 104 53 113 53 10 0 24 -11 33 -24z
m125 -100 c35 -43 46 -35 -1029 -725 l-1035 -663 -105 -7 c-59 -4 -107 -7
-108 -6 -7 4 2067 1328 2142 1367 97 51 116 56 135 34z m-1260 -1532 c0 -8
-26 -21 -62 -33 -584 -181 -2340 -731 -2419 -757 -79 -26 -113 -43 -137 -67
-36 -38 -62 -94 -62 -137 0 -37 -12 -38 -39 -4 -51 65 -45 161 14 213 40 35
-86 -7 1315 431 1119 350 1158 362 1260 369 115 7 130 6 130 -15z m118 -119
c-7 -7 -584 -190 -1282 -408 -743 -232 -1283 -406 -1302 -419 -39 -27 -84 -94
-84 -125 0 -30 -24 -30 -55 2 -16 15 -25 36 -25 54 0 46 29 109 61 132 15 11
574 191 1241 400 1192 373 1215 380 1323 387 113 8 150 1 123 -23z m130 -98
c2 -12 -19 -23 -90 -45 -51 -17 -622 -195 -1268 -397 -646 -202 -1192 -376
-1213 -387 -37 -19 -97 -89 -97 -115 0 -17 -2 -16 -45 4 -30 14 -35 21 -35 52
0 42 28 93 65 117 14 9 571 187 1238 396 1165 365 1216 380 1317 387 123 9
124 9 128 -12z m129 -110 c-2 -6 -10 -14 -18 -19 -8 -5 -582 -186 -1277 -403
-694 -217 -1271 -399 -1281 -404 -21 -12 -77 -73 -83 -93 -7 -18 -82 24 -87
49 -4 23 24 73 54 95 13 10 572 189 1241 399 1187 371 1221 381 1324 388 111
7 133 5 127 -12z m121 -110 c2 -12 -19 -23 -90 -45 -51 -17 -622 -195 -1268
-397 -646 -202 -1191 -376 -1212 -386 -20 -10 -46 -31 -58 -46 l-21 -27 -45
23 c-24 13 -44 28 -44 34 0 24 53 76 92 91 24 9 576 183 1228 386 1134 355
1190 371 1290 379 123 9 124 9 128 -12z m-7541 -1041 c15 -13 26 -27 23 -30
-12 -11 -1782 -118 -1793 -107 -18 18 0 38 45 49 36 10 1487 107 1645 111 42
1 57 -4 80 -23z m23 -95 c0 -5 -13 -21 -30 -34 -22 -19 -46 -27 -92 -31 -71
-7 -1491 -96 -1526 -96 -19 0 -23 5 -20 23 2 16 14 25 43 34 22 7 389 34 815
61 426 27 783 50 793 51 9 0 17 -3 17 -8z m4441 -251 c635 -110 1171 -200
1192 -200 31 0 46 7 74 35 19 19 38 35 43 35 4 0 19 -9 34 -21 43 -34 28 -109
-23 -109 -9 0 -550 93 -1201 206 -911 158 -1195 204 -1230 199 -120 -17 -225
-103 -265 -214 -11 -31 -28 -290 -65 -994 -60 -1137 -56 -1093 -81 -1118 -26
-26 -83 -25 -109 1 -26 26 -25 44 3 57 53 25 52 8 110 1101 l55 1022 26 55
c45 91 130 144 233 145 28 0 570 -90 1204 -200z m-4611 126 c0 -2 -23 -19 -51
-36 l-52 -32 -630 -40 c-426 -27 -633 -36 -639 -30 -20 20 1 40 54 52 29 6
323 28 653 49 674 43 665 43 665 37z m4741 -236 c634 -110 1168 -200 1187
-200 43 0 69 14 91 50 l17 29 37 -25 c27 -18 37 -32 37 -51 0 -31 -26 -63 -51
-63 -10 0 -551 92 -1201 205 -885 154 -1194 204 -1228 200 -64 -8 -162 -59
-201 -102 -17 -21 -43 -61 -57 -91 -24 -54 -25 -65 -79 -1076 -60 -1138 -52
-1068 -127 -1074 -39 -3 -76 18 -76 44 0 6 15 27 34 46 21 21 37 48 40 69 3
19 28 477 56 1019 35 666 56 1001 65 1035 29 104 136 185 246 185 31 0 576
-90 1210 -200z m-4990 75 c-30 -19 -72 -36 -95 -39 -132 -17 -889 -57 -898
-48 -19 19 -1 39 44 50 33 9 815 66 973 71 28 0 27 -1 -24 -34z m5118 -185
c634 -110 1170 -200 1190 -200 39 0 72 21 90 57 l11 22 35 -20 c19 -12 38 -31
41 -44 8 -30 -11 -63 -39 -70 -13 -4 -557 87 -1211 200 -949 165 -1197 205
-1234 199 -149 -22 -264 -141 -279 -288 -3 -28 -28 -494 -57 -1035 l-52 -984
-23 -18 c-35 -29 -85 -25 -111 8 l-21 27 29 26 c17 14 35 35 42 48 7 14 31
398 66 1045 54 1003 55 1023 79 1072 28 59 39 73 85 107 47 34 85 46 150 47
31 1 575 -89 1209 -199z m-5279 86 c0 -2 -23 -19 -51 -36 l-50 -33 -301 -19
c-247 -16 -303 -17 -309 -6 -27 42 38 55 386 77 160 10 298 19 308 20 9 0 17
-1 17 -3z m5405 -196 c634 -110 1169 -200 1190 -200 29 0 45 8 72 35 19 19 38
35 43 35 21 0 60 -44 60 -67 0 -30 -26 -63 -49 -63 -9 0 -550 93 -1201 206
-906 157 -1196 204 -1230 199 -114 -16 -222 -100 -260 -201 -19 -51 -25 -145
-75 -1074 -30 -559 -57 -1025 -61 -1034 -15 -39 -91 -49 -124 -16 -27 27 -26
35 16 73 28 26 37 42 41 77 2 25 28 491 57 1035 48 901 55 994 73 1035 45 102
131 160 236 160 32 0 577 -90 1212 -200z m125 -110 c634 -110 1169 -200 1187
-200 44 0 70 14 92 50 l17 29 32 -21 c18 -11 35 -31 38 -44 8 -30 -19 -74 -45
-74 -11 0 -538 90 -1173 200 -634 110 -1174 203 -1200 206 -34 5 -66 0 -119
-16 -61 -18 -81 -30 -130 -79 -96 -97 -89 -40 -149 -1196 -58 -1118 -49 -1047
-127 -1053 -34 -3 -44 1 -61 23 l-21 27 38 36 c35 34 39 43 45 102 3 36 29
495 56 1020 28 525 53 969 56 985 24 115 135 204 255 205 31 0 575 -90 1209
-200z m-2946 110 l18 -35 -68 -104 c-38 -58 -283 -433 -544 -835 -426 -656
-478 -731 -503 -734 -16 -2 -35 2 -43 9 -27 22 -15 64 49 165 153 240 1001
1541 1015 1557 23 26 54 17 76 -23z m-1954 -65 c10 -12 8 -22 -13 -54 -15 -22
-37 -47 -49 -56 -31 -22 -3147 -1555 -3161 -1555 -23 0 24 32 318 220 279 177
331 206 745 411 1435 708 2126 1048 2136 1048 6 1 17 -6 24 -14z m1124 -31
c43 -42 71 -16 -1086 -1001 -606 -516 -1110 -942 -1120 -947 -12 -6 -22 -6
-29 1 -15 15 149 241 221 304 30 27 480 411 1000 853 982 837 974 830 1014
790z m893 -75 l23 -62 -516 -793 c-477 -733 -518 -794 -543 -794 -16 0 -36 9
-46 21 -16 16 -17 25 -8 48 11 30 1055 1641 1063 1641 3 0 15 -28 27 -61z
m-2205 -190 l-59 -82 -1419 -698 c-780 -385 -1422 -699 -1426 -699 -26 0 24
35 312 218 l320 204 1163 572 c639 315 1164 572 1166 570 2 -2 -24 -40 -57
-85z m1240 -18 l-37 -103 -983 -836 c-540 -461 -990 -837 -999 -837 -9 0 -18
5 -20 10 -2 6 37 66 85 133 l88 122 950 808 c522 445 950 808 951 807 2 -1
-14 -48 -35 -104z m1035 9 l22 -61 -476 -732 c-261 -403 -482 -740 -491 -749
-33 -39 -97 -9 -90 41 4 25 995 1561 1007 1561 3 0 16 -27 28 -60z m71 -201
l21 -56 -458 -704 c-430 -661 -459 -704 -488 -707 -38 -4 -64 27 -54 64 9 34
944 1473 952 1465 4 -3 16 -31 27 -62z m-2487 14 c-6 -10 -34 -49 -63 -87
l-53 -69 -1259 -619 c-692 -341 -1261 -617 -1264 -613 -9 8 -6 10 320 217 275
175 345 214 685 381 208 103 659 326 1003 496 344 170 629 310 633 310 4 1 3
-7 -2 -16z m1259 -143 c-22 -57 -48 -112 -57 -121 -96 -90 -1707 -1449 -1718
-1449 -30 0 -12 38 73 154 l87 118 825 703 c454 386 826 701 827 700 2 0 -15
-48 -37 -105z m1298 -70 l20 -55 -427 -657 c-437 -674 -447 -688 -489 -661
-33 20 -37 40 -17 82 36 71 880 1360 886 1353 4 -4 16 -32 27 -62z m-2744 -42
c-4 -7 -32 -47 -61 -88 l-54 -76 -1095 -539 c-603 -297 -1103 -541 -1112 -543
-32 -5 25 34 323 224 l295 189 853 422 c468 231 853 421 855 422 2 1 0 -5 -4
-11z m1323 -212 l-42 -107 -730 -620 c-401 -342 -736 -624 -743 -626 -7 -3
-18 -1 -24 5 -8 8 13 44 72 126 45 63 98 129 116 147 46 44 1388 1187 1391
1184 2 -1 -16 -50 -40 -109z m-1514 -58 c-6 -7 -35 -47 -65 -88 l-56 -75 -931
-458 c-512 -252 -938 -460 -947 -464 -59 -22 28 40 291 208 300 192 300 192
1005 541 388 191 706 348 709 348 2 0 -1 -6 -6 -12z m1406 -230 c-17 -46 -35
-94 -40 -108 -9 -25 -1217 -1062 -1245 -1068 -37 -9 -19 34 63 147 l88 122
580 494 c319 272 581 494 582 495 1 0 -11 -37 -28 -82z"/>
</g>
</svg>
