<?xml version="1.0" standalone="no"?>
<!DOCTYPE svg PUBLIC "-//W3C//DTD SVG 20010904//EN"
 "http://www.w3.org/TR/2001/REC-SVG-20010904/DTD/svg10.dtd">
<svg version="1.0" xmlns="http://www.w3.org/2000/svg"
 width="1667.000000pt" height="1667.000000pt" viewBox="0 0 1667.000000 1667.000000"
 preserveAspectRatio="xMidYMid meet">

<g transform="translate(0.000000,1667.000000) scale(0.100000,-0.100000)"
fill="#FFFFFF" stroke="none">
<path d="M7935 12093 l-28 -36 -64 -1196 -63 -1196 -28 -55 c-33 -66 -86 -106
-162 -121 -52 -10 -134 3 -1375 219 -1458 254 -1357 242 -1371 167 -8 -46 12
-76 75 -110 29 -16 52 -36 55 -49 3 -12 27 -34 57 -51 28 -17 57 -42 65 -58 8
-15 39 -41 69 -58 30 -17 55 -36 55 -43 0 -17 36 -48 87 -76 24 -13 44 -33 47
-46 4 -14 27 -34 59 -53 28 -16 59 -43 68 -58 12 -21 146 -103 502 -311 441
-257 486 -286 477 -303 -6 -10 -27 -27 -48 -37 -20 -10 -597 -193 -1282 -407
-685 -213 -1253 -395 -1262 -403 -27 -23 -24 -83 5 -110 13 -12 30 -22 38 -22
21 -1 54 -32 73 -68 11 -22 26 -35 47 -39 27 -5 48 -25 92 -87 10 -14 26 -26
36 -26 23 0 71 -37 71 -54 0 -17 43 -56 61 -56 17 0 63 -46 72 -73 4 -10 26
-26 51 -36 29 -13 53 -34 73 -63 27 -41 31 -43 83 -46 30 -1 150 4 265 11 116
8 211 14 212 13 1 -1 -575 -369 -1280 -819 -706 -449 -1288 -822 -1295 -829
-31 -31 -15 -49 268 -293 63 -54 117 -102 120 -105 3 -3 69 -61 148 -128 118
-101 147 -122 165 -116 12 4 355 171 762 372 929 457 1048 514 1039 499 -4 -6
-93 -131 -197 -276 -140 -195 -190 -271 -190 -292 0 -29 27 -69 46 -69 11 0
102 -80 190 -166 29 -28 58 -53 66 -55 13 -5 91 -73 180 -160 26 -25 64 -55
84 -68 20 -12 50 -40 68 -62 28 -36 36 -40 70 -37 34 3 96 52 614 493 317 270
580 492 586 493 5 2 9 -5 9 -15 0 -31 30 -64 76 -84 26 -11 48 -28 53 -41 11
-29 36 -51 81 -72 21 -9 43 -31 55 -53 14 -27 31 -41 55 -49 23 -7 45 -26 64
-54 19 -27 44 -48 72 -61 24 -10 44 -23 44 -28 0 -19 62 -81 81 -81 10 0 26
-12 36 -26 45 -66 70 -84 117 -84 33 0 52 6 70 23 13 12 208 305 432 650 224
345 411 624 415 620 4 -4 73 -195 153 -423 81 -228 154 -426 164 -440 11 -14
38 -32 60 -40 23 -8 42 -20 42 -26 0 -23 44 -67 87 -85 23 -10 43 -24 43 -32
0 -20 51 -65 87 -78 18 -6 35 -19 38 -29 12 -37 47 -70 86 -80 21 -6 39 -17
39 -25 0 -23 49 -73 83 -84 21 -7 40 -25 54 -50 17 -29 34 -44 68 -57 45 -17
48 -16 93 2 84 35 74 -45 136 1107 61 1139 54 1074 131 1152 52 52 107 75 180
75 35 0 556 -86 1214 -200 634 -110 1168 -200 1188 -200 28 0 44 8 74 38 45
46 57 83 38 122 -8 15 -158 153 -334 306 l-321 279 -401 235 c-390 227 -402
235 -385 254 9 10 35 27 57 37 22 9 598 191 1280 404 682 213 1252 394 1268
402 15 7 27 20 27 27 0 7 7 19 15 26 26 22 17 54 -27 96 -70 67 -581 509 -608
526 -23 15 -49 15 -314 -3 -160 -10 -291 -17 -292 -16 -1 1 212 139 473 307
1583 1014 1502 961 1534 1016 49 86 89 43 -573 617 -62 53 -85 67 -111 67 -23
0 -220 -92 -641 -300 -335 -165 -610 -299 -611 -298 -2 2 72 107 164 235 181
250 211 306 189 347 -7 14 -158 152 -336 306 -253 219 -329 280 -350 280 -15
0 -45 -12 -67 -27 -21 -14 -279 -230 -572 -480 -292 -249 -534 -453 -536 -453
-2 0 13 47 34 105 41 109 48 160 27 187 -7 8 -156 140 -331 292 -353 306 -351
305 -412 246 -18 -17 -245 -359 -506 -760 -268 -413 -477 -724 -480 -717 -4 7
-98 271 -209 587 -111 316 -208 585 -215 596 -23 36 -647 574 -665 574 -10 0
-30 -16 -45 -37z m519 -1150 c191 -541 346 -989 346 -997 0 -57 -33 19 -143
332 -69 196 -227 646 -351 1000 -200 568 -238 688 -205 655 4 -4 163 -450 353
-990z m94 -15 c273 -778 329 -952 293 -912 -9 10 -631 1776 -631 1793 0 6 6
11 13 11 7 0 137 -355 325 -892z m3478 847 c4 -8 -2 -27 -12 -43 -45 -69
-1158 -1608 -1168 -1615 -41 -28 -96 -8 -96 35 0 14 976 1381 1063 1488 7 8
47 46 90 83 77 66 112 81 123 52z m-3382 -869 c188 -537 273 -793 267 -799 -6
-6 -12 -9 -14 -6 -12 12 -557 1581 -557 1600 0 20 2 21 13 9 8 -8 138 -370
291 -804z m1606 768 c0 -2 -133 -356 -295 -787 -268 -709 -299 -785 -331 -815
-38 -36 -76 -40 -82 -10 -3 16 502 1368 535 1431 19 38 102 168 121 189 11 13
19 15 33 7 11 -5 19 -12 19 -15z m1904 -10 c4 -9 3 -22 -2 -28 -5 -6 -228
-315 -495 -686 l-487 -675 -105 -53 c-58 -28 -105 -50 -105 -48 0 2 220 309
490 682 446 618 497 685 572 751 83 72 120 88 132 57z m-3425 -754 c123 -350
241 -693 241 -702 0 -9 -4 -19 -8 -22 -6 -3 -264 717 -477 1332 -23 67 -25
107 -5 85 5 -4 117 -316 249 -693z m1641 651 c0 -9 -104 -294 -232 -634 l-233
-619 -82 -69 c-46 -38 -80 -64 -78 -57 3 7 106 279 229 605 204 540 229 600
286 690 35 54 68 101 73 105 15 10 37 -2 37 -21z m1905 -18 c0 -14 -154 -236
-392 -565 l-392 -543 -106 -53 c-72 -36 -103 -47 -96 -35 6 10 183 257 394
548 348 481 391 537 468 603 88 76 124 89 124 45z m-3450 -656 c133 -377 241
-595 200 -605 -6 -15 -7 -15 -15 -1 -18 31 -420 1184 -420 1203 0 58 45 -57
235 -597z m1667 572 c7 -10 -45 -158 -166 -478 -97 -255 -177 -465 -178 -466
-2 -1 -36 -30 -76 -65 -40 -34 -75 -60 -76 -59 -2 2 72 202 163 444 153 401
173 449 235 543 64 100 79 112 98 81z m1916 -20 c1 -9 -133 -204 -300 -433
l-303 -418 -103 -48 -102 -49 29 42 c16 23 150 209 297 414 227 313 281 382
349 442 59 52 87 70 105 68 14 -1 26 -9 28 -18z m-3425 -754 c123 -350 241
-693 241 -702 0 -9 -4 -19 -8 -22 -6 -3 -264 717 -477 1332 -23 67 -25 107 -5
85 5 -4 117 -316 249 -693z m1641 651 c0 -9 -104 -294 -232 -634 l-233 -619
-82 -69 c-46 -38 -80 -64 -78 -57 3 7 106 279 229 605 204 540 229 600 286
690 35 54 68 101 73 105 15 10 37 -2 37 -21z m1905 -18 c0 -14 -154 -236 -392
-565 l-392 -543 -106 -53 c-72 -36 -103 -47 -96 -35 6 10 183 257 394 548 348
481 391 537 468 603 88 76 124 89 124 45z m-3450 -656 c133 -377 241 -595 200
-605 -6 -15 -7 -15 -15 -1 -18 31 -420 1184 -420 1203 0 58 45 -57 235 -597z
m1667 572 c7 -10 -45 -158 -166 -478 -97 -255 -177 -465 -178 -466 -2 -1 -36
-30 -76 -65 -40 -34 -75 -60 -76 -59 -2 2 72 202 163 444 153 401 173 449 235
543 64 100 79 112 98 81z m1916 -20 c1 -9 -133 -204 -300 -433 l-303 -418
-103 -48 -102 -49 29 42 c16 23 150 209 297 414 227 313 281 382 349 442 59
52 87 70 105 68 14 -1 26 -9 28 -18z m-1798 -34 c-38 -12 -80 -56 -137 -137
-47 -67 -61 -94 -58 -115 1 -10 -32 -71 -74 -134 -42 -63 -78 -117 -81 -120
-2 -2 -140 65 -308 150 -222 112 -304 151 -309 144 -4 -7 112 -188 257 -402
l266 -389 319 -126 c311 -123 319 -127 350 -186 18 -33 18 -54 -1 -137 -34
-146 -111 -253 -264 -359 -98 -67 -144 -87 -170 -71 -8 5 -15 17 -15 26 0 25
-65 73 -104 76 -24 2 -50 0 -58 -4 -8 -4 -14 1 -14 10 0 8 -28 19 -69 27 -38 6
-71 18 -74 25 -4 7 -31 19 -60 26 -29 7 -58 16 -64 21 -6 5 -23 7 -39 4 -16 -3
-53 3 -84 14 -30 11 -63 17 -73 14 -9 -3 -16 -2 -16 2 0 13 -35 27 -60 23 -12
-2 -47 5 -78 17 -64 23 -103 27 -103 9 0 -8 4 -9 8 -3 7 11 92 -7 110 -22 7 -5
35 -15 62 -21 28 -6 61 -16 75 -21 15 -5 44 -6 66 -3 22 3 55 -3 72 -12 16 -9
53 -21 83 -26 29 -6 56 -15 60 -21 3 -5 31 -18 61 -27 30 -9 57 -20 59 -25 1 -5
10 -12 19 -14 9 -3 54 -20 100 -37 46 -18 106 -36 133 -41 28 -5 54 -13 60 -19
5 -6 22 -11 38 -11 17 0 34 -7 39 -14 5 -8 40 -24 78 -36 73 -21 125 -44 175
-77 21 -15 49 -34 63 -43 13 -9 47 -25 75 -34 29 -8 53 -21 55 -28 3 -8 14 -14
24 -14 11 0 24 -5 31 -12 6 -7 42 -24 78 -38 37 -13 67 -32 67 -41 0 -9 7 -19
15 -22 8 -4 15 -18 15 -33 0 -14 7 -29 15 -34 8 -4 15 -12 15 -17 0 -6 24 -10
53 -10 31 0 78 2 106 4 27 3 59 7 70 9 10 2 71 -27 137 -65 133 -73 134 -74
149 -46 7 13 37 38 65 56 56 33 143 97 196 144 40 35 98 82 167 127 23 15 42
28 42 29 0 1 49 36 109 79 61 42 158 115 217 161 60 46 134 103 166 127 32 25
83 63 114 86 31 24 95 77 142 118 74 67 95 76 108 51 5 -11 22 -19 38 -19 20
0 28 6 33 23 8 28 8 121 -1 149 -6 21 -9 23 -57 23 -28 0 -54 3 -59 8 -11 11
-6 104 6 104 5 0 23 -16 40 -35 22 -25 39 -34 53 -30 12 4 27 10 32 14 5 4 52
0 103 -10 51 -10 95 -14 98 -10 4 4 9 1 13 -5 5 -9 51 -17 99 -19 67 -2 91 -7
104 -18 10 -8 50 -14 94 -14 70 0 84 -5 84 -32 0 -7 30 -14 68 -15 39 -1 83
-7 98 -14 15 -6 48 -12 74 -14 50 -4 86 -13 125 -31 21 -10 26 -17 20 -28 -5
-10 -4 -11 5 -3 9 7 20 5 36 -5 23 -14 105 -9 118 7 7 7 53 22 102 33 48 12 89
27 91 34 4 10 6 10 5 1 -1 -7 2 -7 6 2 4 8 42 20 85 27 62 9 75 8 89 -8 13 -14
44 -19 75 -12 29 7 56 3 63 -8 7 -12 23 -15 49 -12 21 2 42 7 46 10 3 4 29 -8
58 -25 28 -17 68 -33 87 -36 19 -4 40 -10 47 -15 7 -5 41 -10 76 -11 34 -1 66
-8 71 -15 6 -8 23 -14 39 -14 17 0 34 -6 39 -12 5 -7 30 -14 56 -16 38 -2 45 0
50 17 5 16 7 16 20 -1 8 -9 19 -17 24 -17 5 0 24 -10 41 -23 27 -20 43 -22 120
-22 64 1 91 -3 120 -18 32 -17 44 -17 82 -8 32 8 40 7 51 -4 9 -10 43 -22 75
-26 33 -5 59 -12 59 -17 0 -4 22 -15 49 -24 28 -8 68 -23 90 -33 22 -11 54 -23
72 -28 23 -6 38 -20 45 -41 9 -28 16 -30 56 -20 28 7 47 7 47 -1 0 -7 6 -10 13
-7 6 3 14 -6 17 -19 6 -24 59 -20 81 6 12 14 21 20 21 14z"/>
</g>
</svg>
