<svg width="16" height="16" viewBox="0 0 16 16" fill="none" xmlns="http://www.w3.org/2000/svg">
<path d="M10.4869 9.42016L10.8405 9.0666L10.1334 8.3595L9.77981 8.71305L10.4869 9.42016ZM8.00003 11.1999L7.64648 11.5535L8.00003 11.907L8.35359 11.5535L8.00003 11.1999ZM6.22025 8.71305L5.8667 8.3595L5.15959 9.0666L5.51315 9.42016L6.22025 8.71305ZM9.77981 8.71305L7.64648 10.8464L8.35359 11.5535L10.4869 9.42016L9.77981 8.71305ZM8.35359 10.8464L6.22025 8.71305L5.51315 9.42016L7.64648 11.5535L8.35359 10.8464ZM8.50003 11.1999L8.50003 4.2666L7.50003 4.2666L7.50003 11.1999H8.50003Z" fill="#434343"/>
</svg>
