<svg width="20" height="20" viewBox="0 0 20 20" fill="none" xmlns="http://www.w3.org/2000/svg">
<path d="M15.5052 4.48567C14.5622 2.86926 13.2716 1.97864 11.8716 1.97864H8.12158C6.72158 1.97864 5.43096 2.86926 4.48799 4.48567C3.60674 5.99583 3.12158 7.99426 3.12158 10.1036C3.12158 12.213 3.60674 14.2115 4.48799 15.7216C5.43096 17.338 6.72158 18.2286 8.12158 18.2286H11.8716C13.2716 18.2286 14.5622 17.338 15.5052 15.7216C16.3864 14.2115 16.8716 12.213 16.8716 10.1036C16.8716 7.99426 16.3864 5.99583 15.5052 4.48567ZM15.6052 9.47864H13.1052C13.0563 8.19611 12.801 6.92985 12.3489 5.72864H14.7388C15.2169 6.77395 15.5325 8.07239 15.6052 9.47864ZM13.9958 4.47864H11.7513C11.4902 4.02576 11.1754 3.60606 10.8138 3.22864H11.8716C12.6528 3.22864 13.3872 3.69739 13.9958 4.47864ZM4.37158 10.1036C4.37158 6.37708 6.09033 3.22864 8.12158 3.22864C10.1528 3.22864 11.8716 6.37708 11.8716 10.1036C11.8716 13.8302 10.1528 16.9786 8.12158 16.9786C6.09033 16.9786 4.37158 13.8302 4.37158 10.1036ZM11.8716 16.9786H10.8161C11.1778 16.6012 11.4926 16.1815 11.7536 15.7286H13.9981C13.3872 16.5099 12.6528 16.9786 11.8716 16.9786ZM14.7388 14.4786H12.3497C12.8018 13.2774 13.0571 12.0112 13.106 10.7286H15.606C15.5325 12.1349 15.2169 13.4333 14.7388 14.4786Z" fill="#595959"/>
</svg>
