<svg width="18" height="18" viewBox="0 0 18 18" fill="none" xmlns="http://www.w3.org/2000/svg">
<path d="M15.8086 15.9944C14.2224 15.2209 13.3125 13.563 13.3125 11.4381V10.2231C13.3131 9.99771 13.2457 9.77736 13.1192 9.59084C12.9926 9.40432 12.8127 9.26029 12.6031 9.17757L10.8516 8.48429C10.7138 8.42917 10.6033 8.32183 10.5443 8.18565C10.4853 8.04947 10.4826 7.89549 10.5366 7.75726L12.0356 4.03069C12.1374 3.7861 12.1887 3.5235 12.1866 3.2586C12.1844 2.99371 12.1288 2.73197 12.0231 2.48907C11.9174 2.24616 11.7638 2.02709 11.5714 1.84496C11.3791 1.66283 11.1519 1.5214 10.9036 1.42913C10.42 1.25192 9.88626 1.27031 9.41595 1.48038C8.94564 1.69046 8.57579 2.07567 8.38501 2.55413C8.38474 2.55694 8.38474 2.55976 8.38501 2.56257L6.90705 6.3046C6.85208 6.44304 6.74444 6.55402 6.60775 6.61321C6.47106 6.67239 6.31647 6.67494 6.17791 6.6203L4.39056 5.89257C4.18449 5.80906 3.95818 5.78895 3.74061 5.83479C3.52304 5.88064 3.32409 5.99036 3.16923 6.14991C1.68845 7.67218 0.937514 9.45108 0.937514 11.4374C0.933623 13.4701 1.71972 15.4247 3.12986 16.8887C3.18269 16.944 3.24623 16.9879 3.31658 17.0177C3.38694 17.0476 3.46265 17.0628 3.53908 17.0624H15.5625C15.6897 17.0623 15.813 17.0191 15.9124 16.9399C16.0119 16.8607 16.0816 16.7501 16.1101 16.6262C16.1387 16.5023 16.1244 16.3724 16.0696 16.2577C16.0149 16.1429 15.9229 16.0501 15.8086 15.9944ZM3.9708 6.93741L5.75744 7.66163C5.96367 7.74414 6.18416 7.78512 6.40627 7.78222C6.62838 7.77932 6.84772 7.7326 7.05173 7.64473C7.25574 7.55687 7.4404 7.4296 7.59511 7.27021C7.74982 7.11082 7.87154 6.92246 7.9533 6.71593L9.42986 2.98937C9.60986 2.55976 10.0957 2.33757 10.5148 2.49718C10.6216 2.53682 10.7193 2.59769 10.802 2.67612C10.8847 2.75455 10.9506 2.84891 10.9958 2.95352C11.041 3.05812 11.0646 3.1708 11.065 3.28476C11.0655 3.39871 11.0429 3.51158 10.9985 3.61655L9.49384 7.34241C9.32911 7.75802 9.33602 8.222 9.51306 8.63252C9.69011 9.04303 10.0228 9.36651 10.4381 9.53194L12.1875 10.2231V11.4374C12.1875 11.4606 12.1875 11.4838 12.1875 11.5077L3.17134 7.9014C3.41104 7.55877 3.67842 7.23636 3.9708 6.93741ZM7.3458 15.9374C6.50832 15.1341 5.91503 14.1103 5.63439 12.9843C5.59528 12.8419 5.50172 12.7205 5.37392 12.6465C5.24612 12.5725 5.09433 12.5517 4.95133 12.5886C4.80833 12.6255 4.68558 12.7172 4.60961 12.8439C4.53363 12.9705 4.51051 13.122 4.54525 13.2655C4.79059 14.2342 5.22975 15.1432 5.83619 15.9374H3.78095C2.67155 14.7014 2.05935 13.0983 2.06251 11.4374C2.05563 10.5574 2.24113 9.68657 2.60603 8.88577L12.2951 12.7614C12.506 14.027 13.0376 15.1155 13.8342 15.9367L7.3458 15.9374Z" fill="#434343"/>
</svg>
